<svg width="14" height="14" viewBox="0 0 14 14" fill="none" xmlns="http://www.w3.org/2000/svg">
<path d="M2.45711 1.04289C2.06658 0.652369 1.43342 0.652369 1.04289 1.04289C0.652369 1.43342 0.652369 2.06658 1.04289 2.45711L2.45711 1.04289ZM11.5429 12.9571C11.9334 13.3476 12.5666 13.3476 12.9571 12.9571C13.3476 12.5666 13.3476 11.9334 12.9571 11.5429L11.5429 12.9571ZM1.04289 2.45711L11.5429 12.9571L12.9571 11.5429L2.45711 1.04289L1.04289 2.45711Z" fill="white"/>
<path d="M11.5429 1.04289C11.9334 0.652369 12.5666 0.652369 12.9571 1.04289C13.3476 1.43342 13.3476 2.06658 12.9571 2.45711L11.5429 1.04289ZM2.45711 12.9571C2.06658 13.3476 1.43342 13.3476 1.04289 12.9571C0.652369 12.5666 0.652369 11.9334 1.04289 11.5429L2.45711 12.9571ZM12.9571 2.45711L2.45711 12.9571L1.04289 11.5429L11.5429 1.04289L12.9571 2.45711Z" fill="white"/>
</svg>
