<svg width="36" height="36" viewBox="0 0 36 36" fill="none" xmlns="http://www.w3.org/2000/svg">
<circle cx="18" cy="18" r="18" fill="#AAAAAA"/>
<path d="M27.582 12.186C27.352 11.326 26.674 10.648 25.814 10.418C24.254 10 18 10 18 10C18 10 11.746 10 10.186 10.418C9.326 10.648 8.648 11.326 8.418 12.186C8 13.746 8 18 8 18C8 18 8 22.254 8.418 23.814C8.648 24.674 9.326 25.352 10.186 25.582C11.746 26 18 26 18 26C18 26 24.254 26 25.814 25.582C26.675 25.352 27.352 24.674 27.582 23.814C28 22.254 28 18 28 18C28 18 28 13.746 27.582 12.186ZM16 20.598V15.402C16 15.017 16.417 14.777 16.75 14.969L21.25 17.567C21.583 17.759 21.583 18.241 21.25 18.433L16.75 21.031C16.417 21.224 16 20.983 16 20.598Z" fill="white"/>
</svg>
