<svg width="36" height="36" viewBox="0 0 36 36" fill="none" xmlns="http://www.w3.org/2000/svg">
<circle cx="18" cy="18" r="18" fill="#AAAAAA"/>
<path d="M13.5556 8C10.4878 8 8 10.4878 8 13.5556V22.4444C8 25.5122 10.4878 28 13.5556 28H22.4444C25.5122 28 28 25.5122 28 22.4444V13.5556C28 10.4878 25.5122 8 22.4444 8H13.5556ZM24.6667 10.2222C25.28 10.2222 25.7778 10.72 25.7778 11.3333C25.7778 11.9467 25.28 12.4444 24.6667 12.4444C24.0533 12.4444 23.5556 11.9467 23.5556 11.3333C23.5556 10.72 24.0533 10.2222 24.6667 10.2222ZM18 12.4444C21.0678 12.4444 23.5556 14.9322 23.5556 18C23.5556 21.0678 21.0678 23.5556 18 23.5556C14.9322 23.5556 12.4444 21.0678 12.4444 18C12.4444 14.9322 14.9322 12.4444 18 12.4444ZM18 14.6667C17.1159 14.6667 16.2681 15.0179 15.643 15.643C15.0179 16.2681 14.6667 17.1159 14.6667 18C14.6667 18.8841 15.0179 19.7319 15.643 20.357C16.2681 20.9821 17.1159 21.3333 18 21.3333C18.8841 21.3333 19.7319 20.9821 20.357 20.357C20.9821 19.7319 21.3333 18.8841 21.3333 18C21.3333 17.1159 20.9821 16.2681 20.357 15.643C19.7319 15.0179 18.8841 14.6667 18 14.6667Z" fill="white"/>
</svg>
