<svg width="110" height="22" fill="none" xmlns="http://www.w3.org/2000/svg">
  <g clip-path="url(#a)">
    <path d="M77.711 16.844h9.3v1.912c0 .275-.083.526-.246.75a.752.752 0 0 1-.634.334H65.956c-.243 0-.442-.111-.605-.334a1.242 1.242 0 0 1-.248-.75v-1.912h9.301v-3.077H71.28c-.379 0-.733-.147-1.06-.438-.295-.29-.59-.59-.893-.893-.302-.298-.597-.597-.892-.892a1.457 1.457 0 0 1-.323-.49 1.517 1.517 0 0 1-.115-.57V5.399H80.81V2.997H68.877a.76.76 0 0 1-.633-.323 1.227 1.227 0 0 1-.248-.761V0H84.12v7.312c0 .295-.084.546-.247.761a.76.76 0 0 1-.634.323H71.304v2.375h12.815v1.913c0 .29-.084.546-.247.76a.76.76 0 0 1-.634.323h-5.527v3.077ZM109.984 16.844v1.912c0 .26-.075.506-.231.738a.735.735 0 0 1-.645.346H88.933c-.26 0-.466-.115-.622-.346a1.3 1.3 0 0 1-.23-.738v-1.912h21.907-.004ZM91.85 2.997c-.295 0-.518-.112-.674-.335a1.282 1.282 0 0 1-.23-.75V0h12.866c.395 0 .749.155 1.06.466l1.757 1.758c.172.17.291.33.363.478.068.147.103.338.103.581v9.612c0 .275-.111.49-.334.645a1.28 1.28 0 0 1-.749.231h-2.224V2.997H91.85Z" fill="#EF3340"/>
    <path d="M44.574 19.84c-.482 0-.77-.51-.77-1v-2.192h20.172v2.192c0 .49-.287 1-.77 1H44.57h.004ZM38.514 22h.717c.287 0 .422-.044.598-.195.04-.036 1.1-1.096 1.506-1.498.235-.236.299-.383.299-.682V.785c0-.482-.51-.77-1-.77h-2.12V22ZM6.596 3.188a2.88 2.88 0 0 0-2.877 2.877c0 .769.298 1.49.844 2.036a2.85 2.85 0 0 0 2.037.845 2.88 2.88 0 0 0 2.036-4.913A2.867 2.867 0 0 0 6.6 3.188h-.004Zm.004 8.926a6.004 6.004 0 0 1-4.276-1.77A6.004 6.004 0 0 1 .554 6.07 6.045 6.045 0 0 1 6.597.016c1.617 0 3.136.63 4.275 1.77a6.004 6.004 0 0 1 1.77 4.275 6.056 6.056 0 0 1-6.05 6.049l.009.004ZM15.688 22h.717c.287 0 .422-.044.598-.195.035-.036 1.1-1.096 1.506-1.498.239-.236.299-.383.299-.682V.785c0-.482-.506-.77-1-.77h-2.12V22ZM0 13.457v2.187c0 .49.287 1 .77 1H4.96V22h.717c.287 0 .423-.044.598-.195.04-.036 1.1-1.096 1.506-1.498.235-.236.303-.383.303-.682v-2.98h5.272c.482 0 .77-.507.77-1v-2.188H0ZM51.544 3.14h4.73v7.252h-4.73V3.14Zm7.539 5.567c.235-.235.299-.383.299-.678V3.14h2.952c.483 0 .77-.51.77-1V.016h-18.43v2.128c0 .49.287 1 .769 1h5.387c-.287 0-.418.044-.593.191-.04.036-1.096 1.088-1.499 1.49-.235.236-.299.383-.299.678v4.893h-3.761v2.128c0 .494.287 1 .769 1h16.895c.483 0 .77-.506.77-1v-2.128h-6.113c.283 0 .418-.044.593-.191.04-.036 1.096-1.088 1.499-1.49M24.974 13.524V3.14h3.387v10.38h-3.387v.004ZM35.952.016h-2.12v6.758h-2.343v-2.69c0-.51-.112-.757-.514-1.167C30.28 2.224 28.46.41 28.396.347c-.302-.255-.533-.331-1.027-.331h-5.515V12.58c0 .51.111.761.514 1.163.697.694 2.518 2.51 2.582 2.57.303.26.534.331 1.024.331h5.515v-6.75h2.343v12.11h.717c.287 0 .418-.044.598-.195.04-.036 1.1-1.096 1.506-1.498.24-.236.303-.383.303-.682V.785c0-.482-.506-.77-1-.77" fill="#000"/>
  </g>
  <defs>
    <clipPath id="a">
      <path fill="#fff" d="M0 0h109.984v22H0z"/>
    </clipPath>
  </defs>
</svg>
