<svg width="16" height="16" viewBox="0 0 16 16" fill="none" xmlns="http://www.w3.org/2000/svg">
<path fill-rule="evenodd" clip-rule="evenodd" d="M3 2.5C2.72386 2.5 2.5 2.72386 2.5 3V13C2.5 13.2761 2.72386 13.5 3 13.5L13 13.5C13.2761 13.5 13.5 13.2761 13.5 13V10.5C13.5 10.2239 13.7239 10 14 10C14.2761 10 14.5 10.2239 14.5 10.5V13C14.5 13.8284 13.8284 14.5 13 14.5L3 14.5C2.17157 14.5 1.5 13.8284 1.5 13V3C1.5 2.17157 2.17157 1.5 3 1.5H5.5C5.77614 1.5 6 1.72386 6 2C6 2.27614 5.77614 2.5 5.5 2.5H3ZM9.5 2C9.5 1.72386 9.72386 1.5 10 1.5H13.5C14.0523 1.5 14.5 1.94772 14.5 2.5V6C14.5 6.27614 14.2761 6.5 14 6.5C13.7239 6.5 13.5 6.27614 13.5 6V3.20711L7.35355 9.35355C7.15829 9.54882 6.84171 9.54882 6.64645 9.35355C6.45118 9.15829 6.45118 8.84171 6.64645 8.64645L12.7929 2.5H10C9.72386 2.5 9.5 2.27614 9.5 2Z" fill="#222222"/>
</svg>
