<svg width="20" height="20" viewBox="0 0 20 20" fill="none" xmlns="http://www.w3.org/2000/svg">
<path d="M2.45711 1.04289C2.06658 0.652369 1.43342 0.652369 1.04289 1.04289C0.652369 1.43342 0.652369 2.06658 1.04289 2.45711L2.45711 1.04289ZM17.5429 18.9571C17.9334 19.3476 18.5666 19.3476 18.9571 18.9571C19.3476 18.5666 19.3476 17.9334 18.9571 17.5429L17.5429 18.9571ZM1.04289 2.45711L17.5429 18.9571L18.9571 17.5429L2.45711 1.04289L1.04289 2.45711Z" fill="#555555"/>
<path d="M17.5429 1.04289C17.9334 0.652369 18.5666 0.652369 18.9571 1.04289C19.3476 1.43342 19.3476 2.06658 18.9571 2.45711L17.5429 1.04289ZM2.45711 18.9571C2.06658 19.3476 1.43342 19.3476 1.04289 18.9571C0.652369 18.5666 0.652369 17.9334 1.04289 17.5429L2.45711 18.9571ZM18.9571 2.45711L2.45711 18.9571L1.04289 17.5429L17.5429 1.04289L18.9571 2.45711Z" fill="#555555"/>
</svg>
