<svg width="24" height="24" viewBox="0 0 24 24" fill="none" xmlns="http://www.w3.org/2000/svg">
<path d="M4.45711 3.04289C4.06658 2.65237 3.43342 2.65237 3.04289 3.04289C2.65237 3.43342 2.65237 4.06658 3.04289 4.45711L4.45711 3.04289ZM19.5429 20.9571C19.9334 21.3476 20.5666 21.3476 20.9571 20.9571C21.3476 20.5666 21.3476 19.9334 20.9571 19.5429L19.5429 20.9571ZM3.04289 4.45711L19.5429 20.9571L20.9571 19.5429L4.45711 3.04289L3.04289 4.45711Z" fill="#222222"/>
<path d="M19.5429 3.04289C19.9334 2.65237 20.5666 2.65237 20.9571 3.04289C21.3476 3.43342 21.3476 4.06658 20.9571 4.45711L19.5429 3.04289ZM4.45711 20.9571C4.06658 21.3476 3.43342 21.3476 3.04289 20.9571C2.65237 20.5666 2.65237 19.9334 3.04289 19.5429L4.45711 20.9571ZM20.9571 4.45711L4.45711 20.9571L3.04289 19.5429L19.5429 3.04289L20.9571 4.45711Z" fill="#222222"/>
</svg>
