<svg width="74" height="26" viewBox="0 0 74 26" fill="none" xmlns="http://www.w3.org/2000/svg">
<path fill-rule="evenodd" clip-rule="evenodd" d="M59.62 12.002H65.093V3.614H59.62V12.002ZM31.65 0C32.22 0.002 32.486 0.088 32.837 0.385C32.907 0.451 34.717 2.255 35.622 3.159L35.821 3.357C36.291 3.826 36.419 4.116 36.419 4.706V7.813H39.128L39.13 0H41.584C42.152 0 42.741 0.332 42.741 0.89V22.684C42.741 23.028 42.666 23.196 42.392 23.471C41.922 23.938 40.695 25.163 40.65 25.204C40.445 25.378 40.29 25.428 39.958 25.428H39.128V11.424H36.42V19.235H30.04C29.471 19.235 29.206 19.147 28.853 18.851C27.9605 17.9662 27.0699 17.0795 26.181 16.191L25.869 15.879C25.4 15.41 25.273 15.12 25.273 14.531V0.001L31.65 0ZM48.16 0V25.428H44.547V0.001H48.16V0ZM21.76 0V25.428H18.146V0.001H21.759L21.76 0ZM16.337 15.547V18.079C16.337 18.648 16.004 19.235 15.447 19.235H9.35V22.684C9.35 23.028 9.275 23.196 9.001 23.47C8.611 23.86 7.691 24.776 7.371 25.094L7.261 25.204C7.054 25.378 6.9 25.428 6.568 25.428H5.737V19.235H0.888C0.332 19.235 0 18.648 0 18.079V15.547H16.338H16.337ZM74 19.238V21.772L73.999 21.795L74 22.928H50.667V19.238H74ZM72.993 0V2.457C72.993 3.027 72.661 3.614 72.104 3.614H68.689V9.271C68.689 9.614 68.615 9.781 68.343 10.054C67.876 10.52 66.654 11.738 66.61 11.78C66.406 11.951 66.25 12.002 65.921 12.003H72.993V14.465C72.993 15.035 72.661 15.622 72.104 15.622H52.563C52.007 15.622 51.675 15.035 51.675 14.465V12.003H56.025V6.345C56.025 6.003 56.099 5.835 56.371 5.562L58.103 3.836C58.308 3.665 58.463 3.614 58.793 3.614H52.563C52.007 3.614 51.675 3.026 51.675 2.457V0H72.993ZM32.806 3.614H28.886V15.622H32.808L32.806 3.614ZM7.626 0C9.496 0 11.253 0.73 12.574 2.05C13.226 2.6979 13.7428 3.46882 14.0946 4.31803C14.4463 5.16724 14.6259 6.07784 14.623 6.997C14.623 10.854 11.484 13.992 7.626 13.992C6.70695 13.9947 5.79649 13.8151 4.94734 13.4636C4.09818 13.112 3.32718 12.5955 2.679 11.944C2.02763 11.2957 1.51126 10.5247 1.15973 9.67554C0.808199 8.82641 0.628492 7.91601 0.631 6.997C0.63 3.14 3.769 0 7.626 0ZM7.626 3.668C6.74325 3.66906 5.89697 4.02027 5.27286 4.64456C4.64875 5.26886 4.29779 6.11525 4.297 6.998C4.297 7.886 4.644 8.722 5.272 9.351C5.58051 9.66097 5.94738 9.90673 6.35143 10.0741C6.75547 10.2414 7.18867 10.3271 7.626 10.326C8.50867 10.3249 9.35491 9.9739 9.97914 9.34985C10.6034 8.7258 10.9547 7.87967 10.956 6.997C10.9573 6.55957 10.8719 6.12622 10.7047 5.722C10.5376 5.31778 10.2919 4.95071 9.982 4.642C9.67323 4.33218 9.30614 4.0866 8.90193 3.91942C8.49773 3.75225 8.06441 3.6668 7.627 3.668H7.626Z" fill="#DDDDDD"/>
</svg>
