<svg width="14" height="14" viewBox="0 0 14 14" fill="none" xmlns="http://www.w3.org/2000/svg">
<path d="M8.02953 5.97064C7.48346 5.4248 6.74297 5.11816 5.97087 5.11816C5.19877 5.11816 4.45827 5.4248 3.9122 5.97064L1.85287 8.02931C1.30678 8.57539 1 9.31603 1 10.0883C1 10.8606 1.30678 11.6012 1.85287 12.1473C2.39895 12.6934 3.13959 13.0002 3.91187 13.0002C4.68414 13.0002 5.42478 12.6934 5.97087 12.1473L7.0002 11.118" stroke="white" stroke-width="1.5" stroke-linecap="round" stroke-linejoin="round"/>
<path d="M5.9707 8.02932C6.51677 8.57516 7.25727 8.8818 8.02937 8.8818C8.80147 8.8818 9.54196 8.57516 10.088 8.02932L12.1474 5.97065C12.6935 5.42457 13.0002 4.68393 13.0002 3.91165C13.0002 3.13938 12.6935 2.39873 12.1474 1.85265C11.6013 1.30657 10.8606 0.999786 10.0884 0.999786C9.31609 0.999786 8.57545 1.30657 8.02937 1.85265L7.00004 2.88199" stroke="white" stroke-width="1.5" stroke-linecap="round" stroke-linejoin="round"/>
</svg>
