<svg width="122" height="42" viewBox="0 0 122 42" fill="none" xmlns="http://www.w3.org/2000/svg">
<path fill-rule="evenodd" clip-rule="evenodd" d="M98.2924 19.8244H107.315V5.96921H98.2924V19.8244ZM52.1822 0C53.1219 0.00330338 53.5588 0.145349 54.1391 0.635901C54.257 0.749041 57.4092 3.89799 58.8543 5.34157L59.0579 5.54472C59.8328 6.31937 60.043 6.79836 60.043 7.77203V12.9047H64.51L64.5116 0H68.5566C69.4922 0 70.4649 0.549187 70.4649 1.46918V37.4678C70.4649 38.0359 70.3412 38.3126 69.8895 38.766C69.1146 39.539 67.0901 41.5623 67.0167 41.6292C66.6788 41.9166 66.4241 41.9992 65.8759 41.9992H64.5067V18.8689H60.0438V31.7703H49.5271C48.5898 31.7686 48.1513 31.6257 47.5709 31.136C47.4473 31.0204 43.9752 27.5535 42.6505 26.228C41.8773 25.4534 41.6671 24.9744 41.6671 24.0015V0H52.1822ZM77.4939 0H77.5351L79.4006 0.000825884V41.9992H73.444V0.000825884H73.4481V0H77.4939ZM33.9679 0H34.0091L35.8746 0.000825884V41.9992H29.9172V0.000825884H29.9205V0H33.9679ZM26.9356 25.6788V29.8601C26.9356 30.8007 26.3866 31.7711 25.4683 31.7711H15.4165V37.4661C15.4165 38.0359 15.2929 38.3126 14.8411 38.7652C14.1207 39.4853 12.3146 41.2881 12.0121 41.5887L11.9708 41.63C11.6312 41.9166 11.3757 42 10.8291 42H9.45912V31.7703H1.46482C0.548176 31.7703 0 30.8007 0 29.8601V25.6788H26.9356ZM122 31.776V35.9606L121.999 35.9928L122 37.8699H83.5329V31.7752H122V31.776ZM120.34 0V4.05903C120.34 4.99801 119.792 5.96921 118.874 5.96921H113.244V15.3128C113.244 15.8785 113.123 16.1552 112.674 16.6069C111.904 17.3758 109.889 19.3875 109.816 19.4561C109.481 19.7402 109.225 19.8236 108.681 19.8252H120.34V23.8925C120.34 24.8332 119.792 25.8035 118.874 25.8035H86.6579C85.7413 25.8035 85.1939 24.8332 85.1939 23.8925V19.8252H92.3639V10.48C92.3639 9.91592 92.4875 9.63761 92.9368 9.18587C93.654 8.47152 95.4485 6.67778 95.7502 6.378L95.7914 6.33671C96.1294 6.05262 96.3849 5.96921 96.929 5.96921H86.6579C85.7413 5.96921 85.1939 4.99801 85.1939 4.05903V0H120.34ZM54.0839 5.96838H47.622V25.8027H54.088L54.0839 5.96838ZM12.5726 0C15.6547 0 18.5522 1.20408 20.7301 3.38596C21.8049 4.45614 22.6569 5.72948 23.2366 7.13211C23.8164 8.53475 24.1123 10.0388 24.1074 11.5569C24.1074 17.9274 18.9331 23.1104 12.5726 23.1104C9.49209 23.1104 6.59624 21.9105 4.41755 19.7278C3.34335 18.6571 2.49169 17.3837 1.91186 15.9812C1.33202 14.5787 1.03551 13.0749 1.03947 11.5569C1.03947 5.18631 6.21293 0 12.5726 0ZM12.5734 6.0584C11.1184 6.06015 9.72338 6.64001 8.6945 7.6708C7.66561 8.70158 7.08681 10.0991 7.08507 11.5569C7.08507 13.0252 7.65632 14.406 8.69168 15.445C9.2003 15.9569 9.80514 16.3628 10.4713 16.6393C11.1374 16.9157 11.8516 17.0571 12.5726 17.0554C15.6003 17.0554 18.0634 14.5869 18.0634 11.5569C18.0634 10.0869 17.4922 8.70523 16.456 7.66715C15.9469 7.15542 15.3417 6.74979 14.6753 6.47367C14.0089 6.19755 13.2946 6.05641 12.5734 6.0584Z" fill="#DDDDDD"/>
</svg>
