<svg xmlns="http://www.w3.org/2000/svg" width="110" height="22" viewBox="0 0 110 22"><g><g><g/><g><path fill="#ef3340" d="M77.708 16.844h9.3v1.912c0 .275-.083.526-.247.75a.752.752 0 0 1-.633.334H65.953c-.243 0-.443-.111-.606-.335a1.242 1.242 0 0 1-.247-.749v-1.912h9.3v-3.077h-3.124c-.378 0-.733-.147-1.06-.438-.294-.29-.59-.59-.892-.893-.303-.298-.598-.597-.893-.892a1.457 1.457 0 0 1-.322-.49 1.517 1.517 0 0 1-.116-.57V5.399h12.815V2.997H68.874a.76.76 0 0 1-.634-.323 1.227 1.227 0 0 1-.247-.761V0h16.122v7.312c0 .295-.083.546-.247.761a.76.76 0 0 1-.633.323H71.3v2.375h12.815v1.913c0 .29-.083.545-.247.76a.76.76 0 0 1-.633.323h-5.527z"/></g><g><path fill="#ef3340" d="M88.08 16.844v1.912c0 .26.076.506.231.738.156.23.363.346.622.346h20.175c.275 0 .49-.115.645-.346.156-.231.231-.479.231-.738v-1.912zm15.708-13.847V13.77h2.224c.274 0 .525-.075.749-.23a.744.744 0 0 0 .334-.646V3.283c0-.243-.036-.434-.103-.581a1.844 1.844 0 0 0-.363-.478L104.872.466c-.31-.31-.666-.466-1.06-.466H90.945v1.913c0 .275.076.526.231.749.156.223.379.335.674.335z"/></g><g><g><path d="M44.57 19.842c-.483 0-.77-.51-.77-1V16.65h20.171v2.192c0 .49-.287 1-.77 1H44.566z"/></g><g><path d="M38.51 22.004h.717c.287 0 .423-.044.598-.195.04-.036 1.1-1.096 1.506-1.498.235-.236.3-.383.3-.682V.79c0-.482-.511-.769-1.001-.769h-2.12z"/></g><g><path d="M6.595 3.192c.769 0 1.494.303 2.036.845A2.88 2.88 0 0 1 6.595 8.95a2.85 2.85 0 0 1-2.036-.845 2.857 2.857 0 0 1-.845-2.036A2.88 2.88 0 0 1 6.59 3.192zm-.008 8.922a6.056 6.056 0 0 0 6.049-6.05 6.004 6.004 0 0 0-1.77-4.275A6.007 6.007 0 0 0 6.592.02 6.045 6.045 0 0 0 .55 6.073c0 1.614.626 3.132 1.77 4.276a6.004 6.004 0 0 0 4.275 1.769z"/></g><g><path d="M15.69 22.004h.717c.287 0 .423-.044.598-.195.036-.036 1.1-1.096 1.506-1.498.24-.236.3-.383.3-.682V.79c0-.482-.507-.769-1.001-.769h-2.12z"/></g><g><path d="M0 13.46v2.188c0 .49.287 1 .77 1H4.96v5.355h.717c.287 0 .423-.043.598-.195.04-.036 1.1-1.096 1.506-1.498.235-.235.303-.383.303-.682v-2.98h5.272c.482 0 .77-.506.77-1V13.46z"/></g><g><path d="M51.54 3.144h4.73v7.252h-4.73zm7.539 5.567c.235-.235.299-.383.299-.678V3.144h2.953c.482 0 .769-.51.769-1V.02H44.67v2.128c0 .49.287 1 .77 1h5.386c-.286 0-.418.044-.593.191-.04.036-1.096 1.088-1.499 1.49-.235.236-.298.383-.298.678V10.4h-3.762v2.128c0 .494.287 1 .77 1h16.895c.482 0 .769-.506.769-1V10.4h-6.113c.283 0 .418-.044.594-.19.04-.037 1.096-1.089 1.498-1.491"/></g><g><path d="M24.97 13.528V3.144h3.387v10.38H24.97zM35.948.02h-2.12v6.758h-2.343v-2.69c0-.51-.111-.757-.514-1.167-.693-.693-2.514-2.507-2.578-2.57C28.09.096 27.859.02 27.365.02H21.85v12.564c0 .51.112.761.514 1.164.697.693 2.518 2.51 2.582 2.57.303.259.534.33 1.024.33h5.515v-6.75h2.343v12.11h.717c.287 0 .419-.044.598-.195.04-.036 1.1-1.096 1.506-1.498.24-.236.303-.383.303-.682V.79c0-.482-.506-.769-1-.769"/></g></g></g></g></svg>