<svg xmlns="http://www.w3.org/2000/svg" width="276" height="56" viewBox="0 0 276 56"><g><g><g/><g><path fill="#ef3340" d="M195.02 42.27h23.34v4.8c0 .69-.21 1.32-.62 1.88-.41.56-.94.84-1.59.84h-50.63c-.61 0-1.11-.28-1.52-.84-.41-.56-.62-1.19-.62-1.88v-4.8h23.34v-7.72h-7.84c-.95 0-1.84-.37-2.66-1.1-.74-.73-1.48-1.48-2.24-2.24-.76-.75-1.5-1.5-2.24-2.24a3.66 3.66 0 0 1-.81-1.23c-.19-.47-.29-.95-.29-1.43V13.55h32.16V7.52h-29.95c-.65 0-1.18-.27-1.59-.81-.41-.54-.62-1.18-.62-1.91V0h40.46v18.35c0 .74-.21 1.37-.62 1.91-.41.54-.94.81-1.59.81h-29.95v5.96h32.16v4.8c0 .73-.21 1.37-.62 1.91-.41.54-.94.81-1.59.81h-13.87z"/></g><g><path d="M221.04 42.27v4.8c0 .65.19 1.27.58 1.85.39.58.91.87 1.56.87h50.63c.69 0 1.23-.29 1.62-.87.39-.58.58-1.2.58-1.85v-4.8zm39.42-34.75v27.04h5.58c.69 0 1.32-.19 1.88-.58.56-.39.84-.93.84-1.62V8.24c0-.61-.09-1.09-.26-1.46-.18-.37-.48-.77-.91-1.2l-4.41-4.41C262.4.39 261.51 0 260.52 0h-32.29v4.8c0 .69.19 1.32.58 1.88.39.56.95.84 1.69.84z"/></g><g><g><path fill="#ef3340" d="M111.86 49.79c-1.21 0-1.93-1.28-1.93-2.51v-5.5h50.62v5.5c0 1.23-.72 2.51-1.93 2.51h-46.77z"/></g><g><path d="M96.65 55.21h1.8c.72 0 1.06-.11 1.5-.49.1-.09 2.76-2.75 3.78-3.76.59-.59.75-.96.75-1.71V1.97c0-1.21-1.28-1.93-2.51-1.93h-5.32z"/></g><g><path d="M16.56 8c1.93 0 3.75.76 5.11 2.12a7.203 7.203 0 0 1 2.11 5.11c0 3.98-3.24 7.22-7.22 7.22-1.93 0-3.75-.75-5.11-2.12a7.17 7.17 0 0 1-2.12-5.11c0-3.98 3.24-7.22 7.22-7.22zm-.02 22.39c8.37 0 15.18-6.81 15.18-15.18.01-4.05-1.58-7.86-4.44-10.73A15.074 15.074 0 0 0 16.55.04C8.18.04 1.37 6.85 1.39 15.23c0 4.05 1.57 7.86 4.44 10.73s6.68 4.44 10.73 4.44z"/></g><g><path d="M39.37 55.21h1.8c.72 0 1.06-.11 1.5-.49.09-.09 2.76-2.75 3.78-3.76.6-.59.75-.96.75-1.71V1.97C47.2.76 45.93.04 44.69.04h-5.32z"/></g><g><path d="M0 33.77v5.49c0 1.23.72 2.51 1.93 2.51h10.52v13.44h1.8c.72 0 1.06-.11 1.5-.49.1-.09 2.76-2.75 3.78-3.76.59-.59.76-.96.76-1.71v-7.48h13.23c1.21 0 1.93-1.27 1.93-2.51v-5.49z"/></g><g><path fill="#ef3340" d="M129.35 7.88h11.87v18.2h-11.87zm18.92 13.97c.59-.59.75-.96.75-1.7V7.88h7.41c1.21 0 1.93-1.28 1.93-2.51V.04h-46.25v5.34c0 1.23.72 2.51 1.93 2.51h13.52c-.72 0-1.05.11-1.49.48-.1.09-2.75 2.73-3.76 3.74-.59.59-.75.96-.75 1.7v12.28h-9.44v5.34c0 1.24.72 2.51 1.93 2.51h42.4c1.21 0 1.93-1.27 1.93-2.51v-5.34h-15.34c.71 0 1.05-.11 1.49-.48.1-.09 2.75-2.73 3.76-3.74"/></g><g><path d="M62.67 33.94V7.88h8.5v26.05h-8.5zM90.22.04H84.9V17h-5.88v-6.75c0-1.28-.28-1.9-1.29-2.93-1.74-1.74-6.31-6.29-6.47-6.45-.76-.64-1.34-.83-2.58-.83H54.84v31.53c0 1.28.28 1.91 1.29 2.92 1.75 1.74 6.32 6.3 6.48 6.45.76.65 1.34.83 2.57.83h13.84V24.83h5.88v30.39h1.8c.72 0 1.05-.11 1.5-.49.1-.09 2.76-2.75 3.78-3.76.6-.59.76-.96.76-1.71V1.97c0-1.21-1.27-1.93-2.51-1.93"/></g></g></g></g></svg>