<svg width="110" height="22" viewBox="0 0 110 22" fill="none" xmlns="http://www.w3.org/2000/svg">
<g clip-path="url(#clip0_409_6634)">
<path d="M77.7225 16.8437H87.0243V18.7564C87.0243 19.0313 86.9406 19.2824 86.7772 19.5055C86.6138 19.7287 86.4026 19.8402 86.1435 19.8402H65.9657C65.7226 19.8402 65.5233 19.7287 65.3599 19.5055C65.1965 19.2824 65.1128 19.0313 65.1128 18.7564V16.8437H74.4146V13.7674H71.2901C70.9115 13.7674 70.5568 13.62 70.23 13.3291C69.9351 13.0382 69.6402 12.7394 69.3373 12.4365C69.0344 12.1377 68.7395 11.8388 68.4446 11.5439C68.3051 11.4045 68.1975 11.2411 68.1217 11.0538C68.046 10.8665 68.0062 10.6752 68.0062 10.484V5.39938H80.8231V2.99656H68.8869C68.6279 2.99656 68.4167 2.88897 68.2533 2.67379C68.0899 2.45861 68.0062 2.20359 68.0062 1.9127V0H84.1309V7.31208C84.1309 7.60696 84.0472 7.858 83.8838 8.07318C83.7204 8.28835 83.5092 8.39594 83.2502 8.39594H71.314V10.7709H84.1309V12.6836C84.1309 12.9745 84.0472 13.2295 83.8838 13.4447C83.7204 13.6598 83.5092 13.7674 83.2502 13.7674H77.7225V16.8437Z" fill="#EF3340"/>
<path d="M110 16.8437V18.7564C110 19.0154 109.924 19.2625 109.769 19.4936C109.613 19.7247 109.398 19.8402 109.123 19.8402H88.9452C88.6861 19.8402 88.4789 19.7247 88.3234 19.4936C88.168 19.2625 88.0923 19.0154 88.0923 18.7564V16.8437H110.004H110ZM91.8624 2.99656C91.5675 2.99656 91.3443 2.88498 91.1889 2.66184C91.0335 2.43869 90.9578 2.18765 90.9578 1.9127V0H103.826C104.221 0 104.576 0.155407 104.887 0.46622L106.644 2.22351C106.816 2.39486 106.935 2.55425 107.007 2.70168C107.075 2.84912 107.11 3.04039 107.11 3.28346V12.8948C107.11 13.1697 106.999 13.3849 106.776 13.5403C106.552 13.6957 106.301 13.7714 106.026 13.7714H103.803V2.99656H91.8664H91.8624Z" fill="black"/>
<path d="M44.5802 19.8403C44.098 19.8403 43.811 19.3302 43.811 18.8401V16.6484H63.9849V18.8401C63.9849 19.3302 63.698 19.8403 63.2158 19.8403H44.5762H44.5802Z" fill="#EF3340"/>
<path d="M38.5186 21.9999H39.2358C39.5227 21.9999 39.6582 21.9561 39.8335 21.8047C39.8734 21.7688 40.9333 20.7089 41.3398 20.3064C41.5749 20.0713 41.6386 19.9239 41.6386 19.625V0.784933C41.6386 0.302774 41.1286 0.0158691 40.6385 0.0158691H38.5186V21.9999Z" fill="black"/>
<path d="M6.59554 3.18776C5.00936 3.18776 3.71811 4.47883 3.71811 6.06477C3.71811 6.83384 4.01701 7.55508 4.563 8.101C5.10501 8.64691 5.83035 8.94577 6.59952 8.94577C8.1857 8.94577 9.47696 7.6547 9.47696 6.06876C9.47696 5.29969 9.17805 4.57845 8.63604 4.03253C8.09403 3.4906 7.3687 3.18776 6.59952 3.18776H6.59554ZM6.59952 12.1137C4.98545 12.1137 3.46703 11.4881 2.32323 10.3444C1.17943 9.2008 0.553728 7.6826 0.553728 6.06876C0.545758 2.72951 3.25979 0.0158691 6.59554 0.0158691C8.21359 0.0158691 9.73202 0.645465 10.8718 1.78511C12.0116 2.92875 12.6453 4.44695 12.6413 6.06079C12.6413 9.39605 9.9273 12.1097 6.59155 12.1097L6.59952 12.1137Z" fill="black"/>
<path d="M15.6904 21.9999H16.4077C16.6946 21.9999 16.8301 21.9561 17.0054 21.8047C17.0413 21.7688 18.1052 20.7089 18.5117 20.3064C18.7507 20.0713 18.8105 19.9239 18.8105 19.625V0.784933C18.8105 0.302774 18.3044 0.0158691 17.8103 0.0158691H15.6904V21.9999Z" fill="black"/>
<path d="M0 13.4565V15.6442C0 16.1343 0.286946 16.6444 0.769175 16.6444H4.96178V21.9999H5.67914C5.96609 21.9999 6.10159 21.9561 6.27695 21.8047C6.3168 21.7688 7.37691 20.7089 7.78341 20.3064C8.01855 20.0713 8.0863 19.9239 8.0863 19.625V16.6444H13.3589C13.8412 16.6444 14.1281 16.1383 14.1281 15.6442V13.4565H0Z" fill="black"/>
<path d="M51.5505 3.13994H56.2811V10.3923H51.5505V3.13994ZM59.0908 8.70669C59.3259 8.47158 59.3897 8.32415 59.3897 8.02927V3.13994H62.3428C62.825 3.13994 63.112 2.62989 63.112 2.13976V0.0158691H44.6797V2.14374C44.6797 2.63387 44.9666 3.14393 45.4489 3.14393H50.8371C50.5501 3.14393 50.4186 3.18776 50.2433 3.3352C50.2034 3.37106 49.1473 4.42304 48.7448 4.8255C48.5096 5.06061 48.4459 5.20804 48.4459 5.50292V10.3962H44.6837V12.5241C44.6837 13.0182 44.9706 13.5243 45.4528 13.5243H62.3508C62.833 13.5243 63.12 13.0182 63.12 12.5241V10.3962H57.0064C57.2894 10.3962 57.4249 10.3524 57.6002 10.205C57.6401 10.1691 58.6962 9.11712 59.0987 8.71466" fill="#EF3340"/>
<path d="M24.9765 13.5243V3.13994H28.3641V13.5203H24.9765V13.5243ZM35.9562 0.0158691H33.836V6.77406H31.4926V4.08433C31.4926 3.57428 31.381 3.32723 30.9785 2.91679C30.285 2.22344 28.4637 0.410363 28.3999 0.346606C28.097 0.0915801 27.8659 0.0158691 27.3717 0.0158691H21.856V12.5799C21.856 13.0899 21.9675 13.341 22.3701 13.7435C23.0675 14.4368 24.8888 16.2539 24.9526 16.3136C25.2555 16.5727 25.4866 16.6444 25.9768 16.6444H31.4926V9.89415H33.836V22.0039H34.5533C34.8403 22.0039 34.9718 21.9601 35.1511 21.8087C35.191 21.7728 36.2511 20.7128 36.6576 20.3104C36.8967 20.0753 36.9605 19.9278 36.9605 19.629V0.784933C36.9605 0.302774 36.4543 0.0158691 35.9602 0.0158691" fill="black"/>
</g>
<defs>
<clipPath id="clip0_409_6634">
<rect width="110" height="22" fill="white"/>
</clipPath>
</defs>
</svg>
