<svg width="36" height="36" viewBox="0 0 36 36" fill="none" xmlns="http://www.w3.org/2000/svg">
<circle cx="18" cy="18" r="18" fill="#AAAAAA"/>
<path d="M22.403 15H20V13C20 11.968 20.084 11.318 21.563 11.318H22.431C22.983 11.318 23.431 10.87 23.431 10.318V9.06404C23.431 8.54104 23.03 8.09404 22.508 8.05904C21.904 8.01804 21.299 7.99904 20.693 8.00004C17.98 8.00004 16 9.65703 16 12.699V15H14C13.448 15 13 15.448 13 16V18C13 18.552 13.448 19 14 19L16 18.999V27C16 27.552 16.448 28 17 28H19C19.552 28 20 27.552 20 27V18.997L22.174 18.996C22.682 18.996 23.109 18.615 23.167 18.11L23.396 16.114C23.465 15.521 23.001 15 22.403 15Z" fill="white"/>
</svg>
