<svg width="80" height="16" viewBox="0 0 80 16" fill="none" xmlns="http://www.w3.org/2000/svg">
<g clip-path="url(#clip0_376_2916)">
<path d="M56.517 12.25H63.281V13.641C63.281 13.841 63.2201 14.0235 63.1013 14.1858C62.9825 14.3481 62.8289 14.4293 62.6405 14.4293H47.9678C47.7911 14.4293 47.6462 14.3481 47.5273 14.1858C47.4085 14.0235 47.3477 13.841 47.3477 13.641V12.25H54.1116V10.0127H51.8396C51.5643 10.0127 51.3064 9.90545 51.0687 9.6939C50.8543 9.48234 50.6398 9.26499 50.4196 9.04474C50.1993 8.82739 49.9849 8.61003 49.7704 8.39558C49.669 8.29415 49.5907 8.17533 49.5357 8.03912C49.4806 7.90292 49.4516 7.76381 49.4516 7.62471V3.92683H58.7717V2.17932H50.0921C49.9037 2.17932 49.7501 2.10107 49.6313 1.94458C49.5125 1.78808 49.4516 1.60261 49.4516 1.39105V0H61.177V5.31788C61.177 5.53233 61.1162 5.71491 60.9974 5.8714C60.8785 6.02789 60.7249 6.10614 60.5366 6.10614H51.857V7.83336H61.177V9.22442C61.177 9.43597 61.1162 9.62145 60.9974 9.77794C60.8785 9.93443 60.7249 10.0127 60.5366 10.0127H56.517V12.25Z" fill="#888888"/>
<path d="M79.989 12.25V13.641C79.989 13.8294 79.934 14.0091 79.821 14.1771C79.7079 14.3452 79.5514 14.4293 79.3515 14.4293H64.6788C64.4904 14.4293 64.3397 14.3452 64.2267 14.1771C64.1137 14.0091 64.0586 13.8294 64.0586 13.641V12.25H79.9919H79.989ZM66.8001 2.17932C66.5857 2.17932 66.4234 2.09817 66.3104 1.93588C66.1973 1.77359 66.1423 1.59102 66.1423 1.39105V0H75.5C75.7869 0 76.0448 0.113023 76.2709 0.339069L77.5489 1.6171C77.6735 1.74171 77.7605 1.85763 77.8126 1.96486C77.8619 2.07209 77.888 2.21119 77.888 2.38797V9.37801C77.888 9.57798 77.8068 9.73447 77.6445 9.84749C77.4823 9.96052 77.2997 10.0156 77.0997 10.0156H75.4826V2.17932H66.803H66.8001Z" fill="#888888"/>
<path d="M32.4167 14.4292C32.0661 14.4292 31.8574 14.0583 31.8574 13.7018V12.1079H46.5272V13.7018C46.5272 14.0583 46.3186 14.4292 45.9679 14.4292H32.4138H32.4167Z" fill="#888888"/>
<path d="M28.0098 15.9999H28.5314C28.7401 15.9999 28.8386 15.968 28.9661 15.8579C28.9951 15.8318 29.766 15.0609 30.0616 14.7682C30.2326 14.5972 30.2789 14.49 30.2789 14.2727V0.570794C30.2789 0.220132 29.908 0.0114746 29.5515 0.0114746H28.0098V15.9999Z" fill="#888888"/>
<path d="M4.79576 2.3183C3.64235 2.3183 2.70339 3.25726 2.70339 4.41068C2.70339 4.97 2.92074 5.49454 3.31777 5.89157C3.7119 6.2886 4.23934 6.50595 4.79866 6.50595C5.95208 6.50595 6.89104 5.56699 6.89104 4.41358C6.89104 3.85426 6.67368 3.32971 6.27955 2.93268C5.88542 2.53855 5.35798 2.3183 4.79866 2.3183H4.79576ZM4.79866 8.80988C3.62496 8.80988 2.52081 8.35489 1.68908 7.52316C0.857347 6.69142 0.402356 5.58728 0.402356 4.41358C0.39656 1.98503 2.37012 0.0114746 4.79576 0.0114746C5.97236 0.0114746 7.07651 0.469363 7.90534 1.2982C8.73418 2.12993 9.19497 3.23408 9.19207 4.40778C9.19207 6.83343 7.21851 8.80698 4.79287 8.80698L4.79866 8.80988Z" fill="#888888"/>
<path d="M11.4102 15.9999H11.9318C12.1405 15.9999 12.239 15.968 12.3665 15.8579C12.3926 15.8318 13.1664 15.0609 13.462 14.7682C13.6358 14.5972 13.6793 14.49 13.6793 14.2727V0.570794C13.6793 0.220132 13.3113 0.0114746 12.9519 0.0114746H11.4102V15.9999Z" fill="#888888"/>
<path d="M0 9.78662V11.3776C0 11.7341 0.208658 12.105 0.559319 12.105H3.60804V16H4.12969C4.33834 16 4.43688 15.9681 4.56439 15.858C4.59337 15.8319 5.36425 15.061 5.65984 14.7683C5.83083 14.5973 5.88009 14.4901 5.88009 14.2728V12.105H9.71418C10.0648 12.105 10.2735 11.737 10.2735 11.3776V9.78662H0Z" fill="#888888"/>
<path d="M37.4864 2.28353H40.9264V7.55793H37.4864V2.28353ZM42.9695 6.33207C43.1405 6.16109 43.1868 6.05386 43.1868 5.8394V2.28353H45.3343C45.6849 2.28353 45.8936 1.91258 45.8936 1.55612V0.0114746H32.4902V1.55902C32.4902 1.91548 32.6989 2.28642 33.0496 2.28642H36.9677C36.759 2.28642 36.6634 2.3183 36.5359 2.42553C36.5069 2.45161 35.7389 3.21669 35.4462 3.50939C35.2752 3.68038 35.2289 3.7876 35.2289 4.00206V7.56083H32.4931V9.10838C32.4931 9.46773 32.7018 9.83578 33.0525 9.83578H45.3401C45.6907 9.83578 45.8994 9.46773 45.8994 9.10838V7.56083H41.4538C41.6596 7.56083 41.7581 7.52895 41.8856 7.42173C41.9146 7.39564 42.6826 6.63057 42.9753 6.33786" fill="#888888"/>
<path d="M18.1617 9.83578V2.28353H20.6251V9.83288H18.1617V9.83578ZM26.1458 0.0114746H24.604V4.92653H22.9V2.97036C22.9 2.59941 22.8189 2.41973 22.5262 2.12124C22.0219 1.61698 20.6975 0.298379 20.6511 0.252011C20.4309 0.0665371 20.2628 0.0114746 19.9034 0.0114746H15.8926V9.14895C15.8926 9.5199 15.9737 9.70247 16.2664 9.99517C16.7736 10.4994 18.098 11.8209 18.1443 11.8644C18.3646 12.0528 18.5327 12.1049 18.8891 12.1049H22.9V7.19568H24.604V16.0028H25.1257C25.3343 16.0028 25.43 15.9709 25.5604 15.8608C25.5894 15.8347 26.3602 15.0638 26.6558 14.7711C26.8297 14.6001 26.8761 14.4929 26.8761 14.2756V0.570794C26.8761 0.220132 26.508 0.0114746 26.1487 0.0114746" fill="#888888"/>
</g>
<defs>
<clipPath id="clip0_376_2916">
<rect width="79.9884" height="16" fill="white"/>
</clipPath>
</defs>
</svg>
